<svg xmlns="http://www.w3.org/2000/svg" width="1200" height="630" viewBox="0 0 1200 630" role="img" aria-labelledby="title desc">
  <title id="title">CodeMint 技术博客</title>
  <desc id="desc">编程学习与工程实践的个人技术博客封面</desc>
  <defs>
    <linearGradient id="bg" x1="0" x2="1" y1="0" y2="1">
      <stop offset="0" stop-color="#080b10"/>
      <stop offset="0.48" stop-color="#132033"/>
      <stop offset="1" stop-color="#0e2a2c"/>
    </linearGradient>
    <linearGradient id="glass" x1="0" x2="1" y1="0" y2="1">
      <stop offset="0" stop-color="#ffffff" stop-opacity="0.28"/>
      <stop offset="1" stop-color="#ffffff" stop-opacity="0.06"/>
    </linearGradient>
    <filter id="softShadow" x="-20%" y="-20%" width="140%" height="140%">
      <feDropShadow dx="0" dy="34" stdDeviation="42" flood-color="#000000" flood-opacity="0.34"/>
    </filter>
  </defs>
  <rect width="1200" height="630" fill="url(#bg)"/>
  <path d="M0 120H1200M0 240H1200M0 360H1200M0 480H1200M120 0V630M240 0V630M360 0V630M480 0V630M600 0V630M720 0V630M840 0V630M960 0V630M1080 0V630" stroke="#ffffff" stroke-opacity="0.055"/>
  <circle cx="940" cy="120" r="210" fill="#66b7ff" opacity="0.18"/>
  <circle cx="780" cy="500" r="180" fill="#5ee0bf" opacity="0.14"/>
  <rect x="110" y="105" width="980" height="420" rx="44" fill="url(#glass)" stroke="#ffffff" stroke-opacity="0.18" filter="url(#softShadow)"/>
  <text x="170" y="240" fill="#66b7ff" font-family="SFMono-Regular, Menlo, Consolas, monospace" font-size="34">~/learning</text>
  <text x="170" y="335" fill="#f6f8fb" font-family="-apple-system, BlinkMacSystemFont, Segoe UI, sans-serif" font-size="92" font-weight="700">CodeMint</text>
  <text x="174" y="405" fill="#a8b3c4" font-family="-apple-system, BlinkMacSystemFont, Segoe UI, sans-serif" font-size="34">编程学习 · 工程实践 · 技术复盘</text>
  <rect x="174" y="445" width="300" height="48" rx="24" fill="#0a0f17" opacity="0.84"/>
  <text x="198" y="477" fill="#5ee0bf" font-family="SFMono-Regular, Menlo, Consolas, monospace" font-size="22">learn. build. review.</text>
</svg>
